<svg width="113.084961" height="93.301575" viewBox="0 0 113.085 93.3016" fill="none" xmlns="http://www.w3.org/2000/svg" xmlns:xlink="http://www.w3.org/1999/xlink">
	<desc>
			Created with Pixso.
	</desc>
	<defs/>
	<ellipse id="Ellipse 58" rx="2.500000" ry="2.624691" transform="matrix(0.968216 0.250117 -0.250117 0.968216 19.5039 3.16656)" fill="#0B50FF" fill-opacity="1.000000"/>
	<ellipse id="Ellipse 70" rx="2.500000" ry="2.624691" transform="matrix(0.968216 0.250117 -0.250117 0.968216 8.55273 45.5594)" fill="#0B50FF" fill-opacity="1.000000"/>
	<ellipse id="Ellipse 60" rx="2.500000" ry="2.624691" transform="matrix(0.968216 0.250117 -0.250117 0.968216 55.7056 12.5184)" fill="#0B50FF" fill-opacity="1.000000"/>
	<ellipse id="Ellipse 71" rx="2.500000" ry="2.624691" transform="matrix(0.968216 0.250117 -0.250117 0.968216 44.7544 54.9112)" fill="#0B50FF" fill-opacity="1.000000"/>
	<ellipse id="Ellipse 62" rx="2.500000" ry="2.624691" transform="matrix(0.968216 0.250117 -0.250117 0.968216 91.907 21.8702)" fill="#0B50FF" fill-opacity="1.000000"/>
	<ellipse id="Ellipse 72" rx="2.500000" ry="2.624691" transform="matrix(0.968216 0.250117 -0.250117 0.968216 80.9558 64.263)" fill="#0B50FF" fill-opacity="1.000000"/>
	<ellipse id="Ellipse 64" rx="2.500000" ry="2.624691" transform="matrix(0.968216 0.250117 -0.250117 0.968216 14.0283 24.3629)" fill="#0B50FF" fill-opacity="1.000000"/>
	<ellipse id="Ellipse 73" rx="2.500000" ry="2.624691" transform="matrix(0.968216 0.250117 -0.250117 0.968216 3.07715 66.7554)" fill="#0B50FF" fill-opacity="1.000000"/>
	<ellipse id="Ellipse 66" rx="2.500000" ry="2.624691" transform="matrix(0.968216 0.250117 -0.250117 0.968216 50.23 33.7147)" fill="#0B50FF" fill-opacity="1.000000"/>
	<ellipse id="Ellipse 74" rx="2.500000" ry="2.624691" transform="matrix(0.968216 0.250117 -0.250117 0.968216 39.2788 76.1072)" fill="#0B50FF" fill-opacity="1.000000"/>
	<ellipse id="Ellipse 68" rx="2.500000" ry="2.624691" transform="matrix(0.968216 0.250117 -0.250117 0.968216 86.4316 43.0665)" fill="#0B50FF" fill-opacity="1.000000"/>
	<ellipse id="Ellipse 75" rx="2.500000" ry="2.624691" transform="matrix(0.968216 0.250117 -0.250117 0.968216 75.4805 85.459)" fill="#0B50FF" fill-opacity="1.000000"/>
	<ellipse id="Ellipse 59" rx="2.500000" ry="2.624691" transform="matrix(0.968216 0.250117 -0.250117 0.968216 37.6047 7.84259)" fill="#0B50FF" fill-opacity="1.000000"/>
	<ellipse id="Ellipse 76" rx="2.500000" ry="2.624691" transform="matrix(0.968216 0.250117 -0.250117 0.968216 26.6536 50.2352)" fill="#0B50FF" fill-opacity="1.000000"/>
	<ellipse id="Ellipse 61" rx="2.500000" ry="2.624691" transform="matrix(0.968216 0.250117 -0.250117 0.968216 73.8064 17.1944)" fill="#0B50FF" fill-opacity="1.000000"/>
	<ellipse id="Ellipse 77" rx="2.500000" ry="2.624691" transform="matrix(0.968216 0.250117 -0.250117 0.968216 62.8552 59.5872)" fill="#0B50FF" fill-opacity="1.000000"/>
	<ellipse id="Ellipse 63" rx="2.500000" ry="2.624691" transform="matrix(0.968216 0.250117 -0.250117 0.968216 110.008 26.5462)" fill="#0B50FF" fill-opacity="1.000000"/>
	<ellipse id="Ellipse 78" rx="2.500000" ry="2.624691" transform="matrix(0.968216 0.250117 -0.250117 0.968216 99.0566 68.939)" fill="#0B50FF" fill-opacity="1.000000"/>
	<ellipse id="Ellipse 65" rx="2.500000" ry="2.624691" transform="matrix(0.968216 0.250117 -0.250117 0.968216 32.1292 29.0389)" fill="#0B50FF" fill-opacity="1.000000"/>
	<ellipse id="Ellipse 79" rx="2.500000" ry="2.624691" transform="matrix(0.968216 0.250117 -0.250117 0.968216 21.178 71.4312)" fill="#0B50FF" fill-opacity="1.000000"/>
	<ellipse id="Ellipse 67" rx="2.500000" ry="2.624691" transform="matrix(0.968216 0.250117 -0.250117 0.968216 68.3308 38.3907)" fill="#0B50FF" fill-opacity="1.000000"/>
	<ellipse id="Ellipse 80" rx="2.500000" ry="2.624691" transform="matrix(0.968216 0.250117 -0.250117 0.968216 57.3796 80.7833)" fill="#0B50FF" fill-opacity="1.000000"/>
	<ellipse id="Ellipse 69" rx="2.500000" ry="2.624691" transform="matrix(0.968216 0.250117 -0.250117 0.968216 104.532 47.7425)" fill="#0B50FF" fill-opacity="1.000000"/>
	<ellipse id="Ellipse 81" rx="2.500000" ry="2.624691" transform="matrix(0.968216 0.250117 -0.250117 0.968216 93.5813 90.1351)" fill="#0B50FF" fill-opacity="1.000000"/>
</svg>
